<svg xmlns="http://www.w3.org/2000/svg" width="64" height="64" fill="none"><g clip-path="url(#a)"><path fill="#4D5AE5" d="M63.948 9.048a1.068 1.068 0 0 0-.86-.725l-3.822-.556-1.71-3.462c-.358-.73-1.553-.73-1.912 0l-1.71 3.462-3.82.556a1.067 1.067 0 0 0-.592 1.819l2.765 2.695-.653 3.806c-.068.4.096.804.424 1.043.332.241.765.271 1.124.081L56.6 15.97l3.417 1.797a1.068 1.068 0 0 0 1.548-1.124l-.652-3.806 2.766-2.695a1.07 1.07 0 0 0 .27-1.094Zm-4.926 2.654c-.25.244-.366.598-.306.944l.382 2.228-2.001-1.051a1.064 1.064 0 0 0-.994 0l-2.001 1.051.381-2.228a1.068 1.068 0 0 0-.306-.944l-1.62-1.579 2.238-.325c.348-.05.647-.269.803-.584l1-2.026L57.6 9.214c.156.315.456.534.804.584l2.237.325-1.618 1.579ZM52.267 41.044h-2.134v2.134h2.134v-2.134ZM52.267 45.311h-2.134v2.134h2.134V45.31Z"/><path fill="#4D5AE5" d="M54.4 43.178h-2.133v2.133H54.4v-2.133ZM50.134 43.178H48v2.133h2.134v-2.133ZM44.8 52.778h-2.133v2.133H44.8v-2.133ZM44.8 57.045h-2.133v2.133H44.8v-2.133ZM46.934 54.911H44.8v2.134h2.134V54.91Z"/><path fill="#4D5AE5" d="M42.667 54.911h-2.134v2.134h2.134V54.91ZM32 48.511h-2.133v2.134H32V48.51ZM32 52.778h-2.133v2.133H32v-2.133ZM34.133 50.645H32v2.133h2.133v-2.133ZM29.867 50.645h-2.134v2.133h2.134v-2.133ZM11.733 12.244H9.6v2.133h2.133v-2.133ZM11.733 16.51H9.6v2.134h2.133v-2.133ZM13.866 14.377h-2.133v2.134h2.133v-2.134ZM9.6 14.377H7.466v2.134H9.6v-2.134Z"/><path fill="#2E2F42" d="M49.407 28.188a3.547 3.547 0 0 0-2.384-1.396 3.553 3.553 0 0 0-2.676.718l-2.493 1.932-.002.002-3.78 2.854-2.721-1.067c4.83-2.199 8.19-7.06 8.16-12.684-.042-7.646-6.32-13.833-13.998-13.792-7.676.041-13.888 6.296-13.847 13.942a13.734 13.734 0 0 0 2.28 7.504l-5.527-.018h-.01c-.017 0-.03.009-.047.01a1.045 1.045 0 0 0-.31.063c-.025.01-.052.016-.076.027-.013.006-.026.007-.039.014l-6.449 3.227h-.002L1.71 31.367a.82.82 0 0 0-.125.071 3.56 3.56 0 0 0-1.172 4.598A3.55 3.55 0 0 0 2.533 37.8a3.559 3.559 0 0 0 2.756-.272l2.768-1.49 4.515-2.363 2.714-.03L4.46 44.534l-.004.002-2.663 2.68a3.298 3.298 0 0 0-.967 2.361 3.335 3.335 0 0 0 3.357 3.31 3.342 3.342 0 0 0 2.355-.983l2.614-2.632 3.467-2.618 1.812 1.785-3.505 3.527s-.002 0-.003.002L8.261 54.65a3.298 3.298 0 0 0-.967 2.36c.004.89.357 1.726.992 2.353.654.642 1.51.962 2.365.958a3.341 3.341 0 0 0 2.356-.984l2.664-2.68 4.261-4.29.002-.004 2.009-2.01-.008-.008c.013-.013.031-.017.044-.031l10.27-11.372 6.948.95c.05.008.1.01.15.01.13 0 .254-.032.374-.079.036-.013.066-.03.1-.047.038-.02.078-.03.114-.055l6.404-4.301c.023-.016.036-.042.058-.06.026-.02.058-.028.081-.05l2.53-2.396a3.558 3.558 0 0 0 .399-4.726Zm-45.13 7.464c-.345.188-.739.227-1.116.11a1.43 1.43 0 0 1-.438-2.517l2.62-1.279.643 1.846.27.775-1.979 1.065Zm6.975-3.693-3.088 1.617-.519-1.49-.373-1.072 4.043-2.023-.063 2.968Zm30.127-13.403c.01 1.837-.42 3.572-1.17 5.125l-8.383-3.753a3.722 3.722 0 0 0-1.592-2.767l2.876-9.736c4.763 1.487 8.24 5.904 8.27 11.131Zm-23.577.127c-.035-6.47 5.225-11.762 11.725-11.797.506-.003 1 .037 1.49.097l-2.812 9.522c-.038 0-.075-.011-.114-.01a3.743 3.743 0 0 0-3.725 3.753 3.744 3.744 0 0 0 3.765 3.713c1.389-.008 2.585-.78 3.226-1.907l7.744 3.468c-2.134 2.905-5.564 4.81-9.448 4.83-6.5.036-11.817-5.2-11.851-11.67Zm11.92 1.536a1.608 1.608 0 0 1-1.603 1.608 1.608 1.608 0 0 1-1.62-1.59 1.608 1.608 0 0 1 1.603-1.61 1.608 1.608 0 0 1 1.62 1.592ZM5.027 50.4c-.47.47-1.235.473-1.71.01a1.187 1.187 0 0 1-.008-1.689l1.914-1.927 1.711 1.686-1.907 1.92Zm6.467 7.432c-.47.47-1.235.476-1.71.01a1.188 1.188 0 0 1-.008-1.688l1.915-1.929.81.797.902.89-1.909 1.92Zm6.926-6.975s-.002 0-.003.002l-3.51 3.539-.81-.797-.903-.889 3.507-3.53.004-.002c.08-.08.129-.177.177-.272.014-.028.04-.052.052-.08.033-.083.038-.171.05-.258.006-.05.027-.095.027-.145 0-.072-.026-.14-.042-.211-.013-.064-.013-.13-.038-.191-.041-.1-.11-.188-.184-.274-.02-.024-.028-.053-.05-.076h-.002s0-.003-.002-.004l-3.23-3.183c-.035-.034-.079-.047-.117-.076a1.027 1.027 0 0 0-.175-.114.986.986 0 0 0-.187-.064 1.03 1.03 0 0 0-.206-.039 1.044 1.044 0 0 0-.19.011 1.075 1.075 0 0 0-.209.042.988.988 0 0 0-.188.09c-.04.023-.084.03-.121.059l-3.533 2.666-1.81-1.784 4.771-4.798 8.768 8.53-1.846 1.848ZM31.981 36.75c-.03-.004-.06.008-.09.006a1.043 1.043 0 0 0-.23.015.982.982 0 0 0-.368.139c-.06.036-.115.075-.167.123-.025.023-.056.034-.08.06l-9.34 10.341-8.702-8.467 5.636-5.666a1.068 1.068 0 0 0-.77-1.818v-.001l-4.437.05.038-3.215 6.209.02a13.897 13.897 0 0 0 9.985 4.148c.875-.004 1.727-.1 2.557-.259.08.064.16.128.26.168l4.83 1.894.313 1.516.366 1.768-6.01-.822Zm8.084.313-.642-3.112 2.88-2.176.763 1 1.145 1.503-4.146 2.785Zm7.477-5.702-1.667 1.579-1.876-2.463 1.656-1.283c.31-.24.7-.34 1.084-.292.387.052.73.252.964.563a1.428 1.428 0 0 1-.161 1.896Z"/><path fill="#2E2F42" d="m27.204 37.088-4.286-4.267a1.066 1.066 0 0 0-1.505 0l-4.285 4.267a1.072 1.072 0 0 0 0 1.513l4.285 4.266a1.066 1.066 0 0 0 1.505 0l4.286-4.266a1.067 1.067 0 0 0 0-1.513Zm-5.038 3.518-2.773-2.762 2.773-2.761 2.775 2.761-2.775 2.762ZM34.328 10.142l-.515 2.071c.142.035 3.475.904 3.475 4.298h2.134c0-4.034-3.331-5.931-5.093-6.37ZM39.422 18.644h-2.133v2.134h2.133v-2.134Z"/></g><defs><clipPath id="a"><path fill="#fff" d="M0 0h64v64H0z"/></clipPath></defs></svg>